<?xml version="1.0" encoding="UTF-8" standalone="no"?>
<!-- Created with Inkscape (http://www.inkscape.org/) -->

<svg
   xmlns:dc="http://purl.org/dc/elements/1.1/"
   xmlns:cc="http://creativecommons.org/ns#"
   xmlns:rdf="http://www.w3.org/1999/02/22-rdf-syntax-ns#"
   xmlns:svg="http://www.w3.org/2000/svg"
   xmlns="http://www.w3.org/2000/svg"
   xmlns:sodipodi="http://sodipodi.sourceforge.net/DTD/sodipodi-0.dtd"
   xmlns:inkscape="http://www.inkscape.org/namespaces/inkscape"
   width="263"
   height="464"
   viewBox="0 0 69.585415 122.76667"
   version="1.1"
   id="svg3704"
   inkscape:version="0.92.1 r15371"
   sodipodi:docname="chevron-small-left.svg">
  <defs
     id="defs3698" />
  <sodipodi:namedview
     id="base"
     pagecolor="#ffffff"
     bordercolor="#666666"
     borderopacity="1.0"
     inkscape:pageopacity="0.0"
     inkscape:pageshadow="2"
     inkscape:zoom="0.35"
     inkscape:cx="400"
     inkscape:cy="560"
     inkscape:document-units="mm"
     inkscape:current-layer="layer1"
     showgrid="false"
     units="px"
     inkscape:window-width="1366"
     inkscape:window-height="705"
     inkscape:window-x="-8"
     inkscape:window-y="-8"
     inkscape:window-maximized="1" />
  <metadata
     id="metadata3701">
    <rdf:RDF>
      <cc:Work
         rdf:about="">
        <dc:format>image/svg+xml</dc:format>
        <dc:type
           rdf:resource="http://purl.org/dc/dcmitype/StillImage" />
        <dc:title></dc:title>
      </cc:Work>
    </rdf:RDF>
  </metadata>
  <g
     inkscape:label="Layer 1"
     inkscape:groupmode="layer"
     id="layer1"
     transform="translate(0,-174.2333)">
    <path
       d="m 25.116521,235.76786 41.80416,45.50833 c 1.85209,1.85208 2.64584,3.96875 2.64584,6.61458 0,2.64583 -0.79375,4.7625 -2.64584,6.61458 -1.85208,1.85209 -3.96875,2.64584 -6.61458,2.64584 -2.64583,0 -4.7625,-0.79375 -6.61458,-2.64584 L 2.6269309,242.38244 c -1.85207996,-1.85208 -2.64582996,-3.96875 -2.64582996,-6.61458 0,-2.64584 0.79375,-4.7625 2.64582996,-6.61459 L 53.691521,177.03036 c 1.85208,-1.85209 3.96875,-2.64584 6.61458,-2.64584 2.64583,0 4.7625,0.79375 6.61458,2.64584 1.85209,1.85208 2.64584,3.96875 2.64584,6.61458 0,2.64583 -0.79375,4.7625 -2.64584,6.61458 z"
       id="path3680"
       inkscape:connector-curvature="0"
       style="stroke-width:0.26458332" />
  </g>
</svg>
