<?xml version="1.0" encoding="UTF-8" standalone="no"?>
<svg
   xmlns:dc="http://purl.org/dc/elements/1.1/"
   xmlns:cc="http://creativecommons.org/ns#"
   xmlns:rdf="http://www.w3.org/1999/02/22-rdf-syntax-ns#"
   xmlns:svg="http://www.w3.org/2000/svg"
   xmlns="http://www.w3.org/2000/svg"
   xmlns:sodipodi="http://sodipodi.sourceforge.net/DTD/sodipodi-0.dtd"
   xmlns:inkscape="http://www.inkscape.org/namespaces/inkscape"
   viewBox="0 -144 808 907"
   version="1.1"
   id="svg3730"
   sodipodi:docname="stats.svg"
   width="808"
   height="907"
   inkscape:version="0.92.1 r15371">
  <metadata
     id="metadata3736">
    <rdf:RDF>
      <cc:Work
         rdf:about="">
        <dc:format>image/svg+xml</dc:format>
        <dc:type
           rdf:resource="http://purl.org/dc/dcmitype/StillImage" />
        <dc:title></dc:title>
      </cc:Work>
    </rdf:RDF>
  </metadata>
  <defs
     id="defs3734" />
  <sodipodi:namedview
     pagecolor="#ffffff"
     bordercolor="#666666"
     borderopacity="1"
     objecttolerance="10"
     gridtolerance="10"
     guidetolerance="10"
     inkscape:pageopacity="0"
     inkscape:pageshadow="2"
     inkscape:window-width="1366"
     inkscape:window-height="705"
     id="namedview3732"
     showgrid="false"
     inkscape:zoom="0.23412698"
     inkscape:cx="504"
     inkscape:cy="504"
     inkscape:window-x="-8"
     inkscape:window-y="-8"
     inkscape:window-maximized="1"
     inkscape:current-layer="svg3730" />
  <path
     d="m 57.033901,462.30509 h 100.999999 -1 c 14,0 26,5 36,15 10,10 15,22 15,36 v 252 H 6.0338981 v -252 c 0,-14 4.9999999,-26 15.0000029,-36 10,-10 22,-15 36,-15 z m 302.999999,-302 h 101 -1 c 14,0 26,5 36,15 10,10 15,22 15,36 v 554 h -202 v -554 c 0,-14 5,-26 15,-36 10,-10 22,-15 36,-15 z m 302,-301.00001 h 101 v -1 c 14,0 26,5 36,15 10,10 15,22 15,36.000005 V 765.30509 h -202 V -90.694915 c 0,-19.000005 8,-34.000005 25,-44.000005 8,-4 16,-6 25,-6 z"
     id="path3728"
     inkscape:connector-curvature="0"
     style="fill:currentColor" />
</svg>
