<?xml version="1.0" encoding="utf-8"?><svg xmlns="http://www.w3.org/2000/svg" xmlns:xlink="http://www.w3.org/1999/xlink"><symbol viewBox="0 0 69.585 122.767" id="chevron-small-left" xmlns="http://www.w3.org/2000/svg"><path d="M25.117 61.535l41.804 45.508c1.852 1.852 2.646 3.969 2.646 6.614 0 2.646-.794 4.763-2.646 6.615-1.852 1.852-3.97 2.646-6.615 2.646-2.646 0-4.762-.794-6.614-2.646L2.627 68.15C.775 66.297-.02 64.18-.02 61.535c0-2.646.794-4.763 2.646-6.615L53.692 2.797C55.544.945 57.66.151 60.306.151s4.763.794 6.615 2.646c1.852 1.852 2.646 3.969 2.646 6.615 0 2.645-.794 4.762-2.646 6.614z"/></symbol><symbol viewBox="0 0 1432 1008" id="livestream" xmlns="http://www.w3.org/2000/svg"><path d="M1261 20.5Q1338 41 1375.5 85t47 108.5T1433 380v248q0 118-19.5 190t-63 113-114 59-189.5 18H386q-164 0-245-43-43-22-70.5-52T27 838Q0 759 0 628V380q0-182 21-237Q57 52 167 22 246 0 386 0h661q137 0 214 20.5zM920 538q25-13 25-40.5T920 457L619 300q-24-12-45.5 2T552 341v314q0 26 22 39 12 7 22.5 7t22.5-6zm0 0z"/></symbol><symbol viewBox="0 0 1008 1008" id="star" xmlns="http://www.w3.org/2000/svg"><path d="M0 377h378L504-1l126 378h378L693 629l126 378-315-252-315 252 126-378L0 377z"/></symbol><symbol viewBox="0 -144 1008 1008" id="stats" xmlns="http://www.w3.org/2000/svg"><path d="M151 653h101-1c14 0 26 5 36 15s15 22 15 36v252H100V704c0-14 5-26 15-36s22-15 36-15zm303-302h101-1c14 0 26 5 36 15s15 22 15 36v554H403V402c0-14 5-26 15-36s22-15 36-15zM756 50h101v-1c14 0 26 5 36 15s15 22 15 36v856H706V100c0-19 8-34 25-44 8-4 16-6 25-6z"/></symbol><symbol viewBox="0 0 1008 1008" id="tracker" xmlns="http://www.w3.org/2000/svg"><path d="M504 74c142 0 250 108 252 250-10 100-53 202-126 303-73 100-116 153-126 159-10-6-53-59-126-159-73-101-116-203-126-303 2-142 110-250 252-250zm0 167c-47 0-83 37-83 85 0 47 36 82 83 82s83-35 83-82c0-48-36-85-83-85zm337 545c-6 97-146 168-337 168s-331-71-337-168c2-53 52-100 132-132l26 38c-47 20-71 45-73 75 2 57 110 102 252 102s250-45 252-102c-2-30-26-55-73-75l26-38c80 32 130 79 132 132z"/></symbol></svg>